<svg width="201" height="59" viewBox="0 0 201 59" fill="none" xmlns="http://www.w3.org/2000/svg">
<path d="M198.754 52.0346C198.754 52.7771 198.607 53.5124 198.323 54.1984C198.039 54.8844 197.622 55.5076 197.096 56.0324C196.571 56.5572 195.947 56.9733 195.26 57.2569C194.574 57.5406 193.838 57.6861 193.096 57.6854H7.92889C6.4281 57.6869 4.98814 57.0925 3.92568 56.0328C2.86322 54.9731 2.26526 53.535 2.26331 52.0346V6.97125C2.26526 5.47018 2.86298 4.03124 3.92523 2.97038C4.98748 1.90952 6.42742 1.31345 7.92889 1.31306H193.094C193.837 1.31306 194.573 1.45943 195.26 1.7438C195.946 2.02817 196.57 2.44497 197.096 2.9704C197.621 3.49583 198.038 4.11959 198.322 4.80607C198.606 5.49254 198.753 6.22827 198.752 6.97125L198.754 52.0346Z" fill="#01020D"/>
<path d="M193.095 59H7.92875C6.07996 58.9996 4.30682 58.266 2.99842 56.9602C1.69002 55.6543 0.953225 53.8829 0.949707 52.0346L0.949707 6.97277C0.952442 5.12355 1.68875 3.35091 2.99711 2.04373C4.30547 0.73655 6.07904 0.00156081 7.92875 0L193.094 0C194.943 0.00233962 196.717 0.737579 198.025 2.04459C199.333 3.35161 200.07 5.12379 200.073 6.97277V52.0346C200.076 55.8766 196.94 59 193.095 59Z" fill="#FFFEFB"/>
<path d="M198.754 52.0346C198.754 52.7771 198.607 53.5124 198.323 54.1984C198.039 54.8844 197.622 55.5076 197.096 56.0324C196.571 56.5572 195.947 56.9733 195.26 57.2569C194.574 57.5405 193.838 57.6861 193.096 57.6854H7.92889C6.4281 57.6869 4.98814 57.0925 3.92568 56.0328C2.86322 54.9731 2.26526 53.535 2.26331 52.0346V6.97125C2.26526 5.47018 2.86298 4.03124 3.92523 2.97038C4.98748 1.90952 6.42743 1.31345 7.92889 1.31306H193.094C193.837 1.31306 194.573 1.45943 195.26 1.7438C195.946 2.02817 196.57 2.44497 197.096 2.9704C197.621 3.49583 198.038 4.11959 198.322 4.80607C198.606 5.49254 198.753 6.22827 198.752 6.97125L198.754 52.0346Z" fill="#FFFEFB"/>
<path d="M45.4126 29.1894C45.3698 24.4342 49.3072 22.1207 49.4872 22.013C47.2573 18.7627 43.801 18.3186 42.5864 18.2832C39.6835 17.9778 36.8677 20.0198 35.3889 20.0198C33.8807 20.0198 31.6035 18.3127 29.1493 18.3629C25.9911 18.4116 23.0365 20.2396 21.4161 23.0783C18.0719 28.8663 20.566 37.372 23.77 42.0505C25.3727 44.3433 27.2455 46.9002 29.6968 46.8102C32.095 46.7128 32.9908 45.2831 35.8848 45.2831C38.7523 45.2831 39.5935 46.8102 42.0935 46.7526C44.6673 46.7128 46.2877 44.451 47.8343 42.139C49.6865 39.5143 50.4303 36.9264 50.4598 36.7937C50.4007 36.773 45.4627 34.8874 45.4126 29.1894ZM40.69 15.2055C41.9799 13.5929 42.8624 11.399 42.6174 9.17258C40.7505 9.2552 38.4158 10.4636 37.0714 12.0408C35.8819 13.4306 34.8193 15.7086 35.0938 17.8509C37.1909 18.0073 39.3441 16.793 40.69 15.2055Z" fill="#01020D"/>
<path d="M193.096 0H93.9147L132.762 59H193.096C194.945 58.9984 196.718 58.2639 198.026 56.9573C199.334 55.6508 200.071 53.8789 200.075 52.0302V6.97277C200.072 5.12367 199.335 3.35126 198.027 2.04416C196.719 0.737065 194.945 0.00195036 193.096 0Z" fill="#FFFEFB"/>
<path d="M80.1483 46.4812H76.7968L74.9609 40.7138H68.5796L66.8307 46.4812H63.5677L69.8915 26.8465H73.7965L80.1483 46.4812ZM74.4075 38.2942L72.7472 33.1671C72.5716 32.6434 72.241 31.4099 71.7569 29.4683H71.6979C71.5031 30.3034 71.1917 31.5368 70.7652 33.1671L69.133 38.2942H74.4075ZM96.3791 39.2281C96.3791 41.636 95.7254 43.5392 94.4163 44.9365C93.2445 46.1802 91.7879 46.8014 90.0509 46.8014C88.1752 46.8014 86.8263 46.133 86.0072 44.7933V52.222H82.8608V36.9766C82.8608 35.4643 82.821 33.9137 82.7442 32.3232H85.5114L85.687 34.5673H85.746C86.7953 32.8765 88.3877 32.0311 90.5246 32.0311C92.1952 32.0311 93.5899 32.6906 94.7056 34.0111C95.8198 35.3345 96.3791 37.0725 96.3791 39.2281ZM93.1737 39.3432C93.1737 37.9652 92.8638 36.8291 92.241 35.9335C91.5607 35.0025 90.6471 34.5363 89.5019 34.5363C88.7257 34.5363 88.0202 34.796 87.3901 35.308C86.7584 35.8243 86.3452 36.4986 86.1519 37.3337C86.0656 37.646 86.0165 37.9674 86.0058 38.2912V40.6533C86.0058 41.6817 86.3216 42.5507 86.9532 43.2619C87.5849 43.9701 88.4054 44.3256 89.4149 44.3256C90.5999 44.3256 91.5223 43.8668 92.182 42.9565C92.8431 42.0432 93.1737 40.8393 93.1737 39.3432ZM112.667 39.2281C112.667 41.636 112.014 43.5392 110.705 44.9365C109.531 46.1802 108.076 46.8014 106.338 46.8014C104.462 46.8014 103.113 46.133 102.294 44.7933V52.222H99.1477V36.9766C99.1477 35.4643 99.1079 33.9137 99.0311 32.3232H101.798L101.974 34.5673H102.033C103.081 32.8765 104.673 32.0311 106.812 32.0311C108.481 32.0311 109.875 32.6906 110.994 34.0111C112.107 35.3345 112.667 37.0725 112.667 39.2281ZM109.461 39.3432C109.461 37.9652 109.149 36.8291 108.526 35.9335C107.846 35.0025 106.936 34.5363 105.79 34.5363C105.014 34.5363 104.309 34.796 103.675 35.308C103.044 35.8243 102.632 36.4986 102.439 37.3337C102.343 37.7232 102.291 38.0404 102.291 38.2912V40.6533C102.291 41.6817 102.608 42.5507 103.237 43.2619C103.869 43.9686 104.689 44.3256 105.702 44.3256C106.888 44.3256 107.811 43.8668 108.469 42.9565C109.13 42.0432 109.461 40.8393 109.461 39.3432ZM130.879 40.9735C130.879 42.6451 130.294 44.004 129.133 45.053C127.855 46.1979 126.071 46.7719 123.783 46.7719C121.67 46.7719 119.976 46.3646 118.698 45.5487L119.425 42.9269C120.805 43.7443 122.321 44.1515 123.971 44.1515C125.157 44.1515 126.08 43.883 126.738 43.3504C127.397 42.8163 127.731 42.1022 127.731 41.2111C127.731 40.4129 127.455 39.7445 126.913 39.2001C126.369 38.6571 125.469 38.1511 124.204 37.6863C120.765 36.4042 119.044 34.5289 119.044 32.0621C119.044 30.4509 119.652 29.1319 120.866 28.1006C122.079 27.0708 123.687 26.5558 125.688 26.5558C127.476 26.5558 128.965 26.8672 130.147 27.4883L129.357 30.0526C128.245 29.4506 126.989 29.1496 125.584 29.1496C124.474 29.1496 123.603 29.4226 122.98 29.9655C122.456 30.4509 122.191 31.0426 122.191 31.7448C122.191 32.5194 122.493 33.1627 123.095 33.6673C123.618 34.1321 124.571 34.6381 125.95 35.1811C127.641 35.8627 128.884 36.6565 129.679 37.5683C130.48 38.4801 130.879 39.6176 130.879 40.9735ZM141.308 34.6839H137.84V41.5578C137.84 43.3061 138.451 44.1781 139.676 44.1781C140.238 44.1781 140.705 44.1309 141.074 44.032L141.161 46.4207C140.541 46.6523 139.725 46.7689 138.714 46.7689C137.471 46.7689 136.5 46.3897 135.799 45.6314C135.101 44.873 134.75 43.6027 134.75 41.8145V34.678H132.684V32.3173H134.75V29.725L137.84 28.7926V32.3173H141.308V34.6839ZM156.925 39.2856C156.925 41.4619 156.302 43.2486 155.06 44.6458C153.76 46.0843 152.03 46.8014 149.874 46.8014C147.793 46.8014 146.139 46.1123 144.905 44.7358C143.671 43.3563 143.054 41.6183 143.054 39.5217C143.054 37.3278 143.692 35.5307 144.962 34.1335C146.236 32.7348 147.951 32.0355 150.107 32.0355C152.185 32.0355 153.854 32.726 155.117 34.104C156.325 35.4407 156.925 37.167 156.925 39.2856ZM153.664 39.3579C153.664 38.0611 153.383 36.9486 152.821 36.0176C152.161 34.8934 151.217 34.3312 149.993 34.3312C148.733 34.3312 147.766 34.8934 147.108 36.0176C146.544 36.9486 146.264 38.0802 146.264 39.417C146.264 40.7153 146.544 41.8307 147.108 42.7588C147.789 43.883 148.737 44.4451 149.967 44.4451C151.17 44.4451 152.113 43.8712 152.794 42.7307C153.373 41.7776 153.664 40.6578 153.664 39.3579ZM167.157 35.0896C166.83 35.0305 166.498 35.0014 166.165 35.0025C165.058 35.0025 164.202 35.4186 163.6 36.2566C163.078 36.9943 162.815 37.9268 162.815 39.0525V46.4812H159.669V36.7819C159.671 35.2957 159.641 33.8095 159.577 32.3247H162.318L162.433 35.0335H162.52C162.853 34.1025 163.376 33.3516 164.093 32.7894C164.75 32.2982 165.547 32.0322 166.367 32.0311C166.658 32.0311 166.921 32.0517 167.154 32.0886L167.157 35.0896ZM181.229 38.7324C181.237 39.2106 181.198 39.6884 181.113 40.1591H171.674C171.71 41.5578 172.167 42.6289 173.044 43.3666C173.839 44.0247 174.868 44.3551 176.131 44.3551C177.529 44.3551 178.804 44.1338 179.951 43.6868L180.443 45.8689C179.103 46.4532 177.521 46.7438 175.696 46.7438C173.5 46.7438 171.776 46.0976 170.522 44.8081C169.27 43.5171 168.643 41.782 168.643 39.6088C168.643 37.4753 169.226 35.6975 170.393 34.2796C171.615 32.7658 173.267 32.0089 175.345 32.0089C177.386 32.0089 178.931 32.7658 179.98 34.2796C180.811 35.4791 181.229 36.9663 181.229 38.7324ZM178.228 37.9165C178.25 36.9825 178.044 36.1784 177.617 35.4983C177.073 34.6219 176.234 34.1852 175.111 34.1852C174.083 34.1852 173.245 34.6116 172.607 35.4673C172.083 36.1475 171.772 36.9648 171.676 37.9135L178.228 37.9165Z" fill="#01020D"/>
<path d="M67.6719 19.9047C66.7968 19.9047 66.0397 19.8619 65.4095 19.7896V10.2968C66.2909 10.1607 67.1816 10.0936 68.0734 10.0962C71.6817 10.0962 73.3434 11.8711 73.3434 14.7644C73.3434 18.1017 71.3806 19.9047 67.6719 19.9047ZM68.2003 11.3134C67.7133 11.3134 67.2986 11.3429 66.9547 11.4137V18.6299C67.1407 18.6594 67.4978 18.6727 67.9996 18.6727C70.3638 18.6727 71.7097 17.3272 71.7097 14.8072C71.7097 12.5601 70.4922 11.3134 68.2003 11.3134ZM78.522 19.977C76.4883 19.977 75.1705 18.4588 75.1705 16.3976C75.1705 14.2495 76.5164 12.718 78.6371 12.718C80.6412 12.718 81.9886 14.1639 81.9886 16.284C81.9886 18.4588 80.5999 19.977 78.522 19.977ZM78.581 13.8481C77.4639 13.8481 76.7481 14.8927 76.7481 16.3534C76.7481 17.786 77.4786 18.8306 78.5663 18.8306C79.6539 18.8306 80.3845 17.7137 80.3845 16.3239C80.3845 14.9075 79.6687 13.8481 78.581 13.8481ZM93.5855 12.8611L91.4086 19.8191H89.9904L89.0887 16.7975C88.8645 16.0584 88.6778 15.3084 88.5294 14.5504H88.4999C88.3862 15.3088 88.1708 16.0686 87.942 16.7975L86.9827 19.8191H85.5497L83.5013 12.8611H85.0908L85.8788 16.169C86.0648 16.9568 86.2212 17.7004 86.3511 18.4027H86.3806C86.4942 17.817 86.6802 17.0852 86.9532 16.1837L87.942 12.8626H89.2023L90.1483 16.1129C90.3771 16.9008 90.563 17.6739 90.7076 18.4042H90.749C90.8493 17.6886 91.0072 16.9288 91.2212 16.1129L92.0669 12.8626L93.5855 12.8611ZM101.599 19.8191H100.052V15.8237C100.052 14.5932 99.5801 13.9765 98.6489 13.9765C97.7324 13.9765 97.1023 14.7644 97.1023 15.6806V19.8191H95.5556V14.8499C95.5556 14.2347 95.5409 13.5752 95.4981 12.8596H96.8588L96.9311 13.9337H96.9739C97.3901 13.1901 98.2342 12.718 99.1802 12.718C100.641 12.718 101.6 13.8349 101.6 15.6526L101.599 19.8191ZM105.864 19.8191H104.316V9.66832H105.864V19.8191ZM111.503 19.977C109.471 19.977 108.152 18.4588 108.152 16.3976C108.152 14.2495 109.497 12.718 111.617 12.718C113.622 12.718 114.968 14.1639 114.968 16.284C114.97 18.4588 113.58 19.977 111.503 19.977ZM111.561 13.8481C110.443 13.8481 109.728 14.8927 109.728 16.3534C109.728 17.786 110.46 18.8306 111.544 18.8306C112.634 18.8306 113.363 17.7137 113.363 16.3239C113.364 14.9075 112.65 13.8481 111.561 13.8481ZM121.066 19.8191L120.954 19.018H120.913C120.441 19.6627 119.751 19.977 118.878 19.977C117.631 19.977 116.745 19.1035 116.745 17.9291C116.745 16.2117 118.234 15.3236 120.812 15.3236V15.1952C120.812 14.279 120.327 13.8201 119.368 13.8201C118.681 13.8201 118.079 13.9927 117.549 14.3365L117.235 13.3199C117.879 12.9186 118.681 12.718 119.624 12.718C121.443 12.718 122.361 13.677 122.361 15.5965V18.1593C122.361 18.8616 122.392 19.406 122.461 19.8206L121.066 19.8191ZM120.854 16.3534C119.136 16.3534 118.274 16.7694 118.274 17.7565C118.274 18.4868 118.718 18.8439 119.335 18.8439C120.122 18.8439 120.854 18.2434 120.854 17.4275V16.3534ZM129.871 19.8191L129.799 18.7022H129.756C129.312 19.5462 128.565 19.977 127.521 19.977C125.843 19.977 124.601 18.5016 124.601 16.4257C124.601 14.2495 125.889 12.7165 127.648 12.7165C128.58 12.7165 129.239 13.0308 129.611 13.6622H129.642V9.66832H131.19V17.9439C131.19 18.6167 131.206 19.2467 131.248 19.8191H129.871ZM129.642 15.7249C129.642 14.7511 128.997 13.9204 128.013 13.9204C126.866 13.9204 126.165 14.937 126.165 16.3681C126.165 17.7712 126.893 18.7317 127.982 18.7317C128.954 18.7317 129.642 17.8863 129.642 16.8845V15.7249ZM141.006 19.977C138.974 19.977 137.656 18.4588 137.656 16.3976C137.656 14.2495 139.002 12.718 141.121 12.718C143.126 12.718 144.472 14.1639 144.472 16.284C144.474 18.4588 143.085 19.977 141.006 19.977ZM141.063 13.8481C139.948 13.8481 139.232 14.8927 139.232 16.3534C139.232 17.786 139.962 18.8306 141.049 18.8306C142.138 18.8306 142.867 17.7137 142.867 16.3239C142.87 14.9075 142.154 13.8481 141.063 13.8481ZM152.79 19.8191H151.242V15.8237C151.242 14.5932 150.77 13.9765 149.838 13.9765C148.922 13.9765 148.293 14.7644 148.293 15.6806V19.8191H146.745V14.8499C146.745 14.2347 146.73 13.5752 146.688 12.8596H148.048L148.121 13.9337H148.163C148.578 13.1901 149.424 12.7165 150.368 12.7165C151.829 12.7165 152.79 13.8334 152.79 15.6511V19.8191ZM163.196 14.0208H161.494V17.3994C161.494 18.2596 161.792 18.689 162.394 18.689C162.667 18.689 162.896 18.6594 163.081 18.6167L163.124 19.7911C162.824 19.9062 162.422 19.9637 161.924 19.9637C160.705 19.9637 159.976 19.2909 159.976 17.5293V14.0208H158.96V12.8611H159.976V11.5863L161.494 11.1275V12.8596H163.196V14.0208ZM171.384 19.8191H169.838V15.8532C169.838 14.608 169.368 13.978 168.435 13.978C167.634 13.978 166.887 14.5224 166.887 15.6245V19.8191H165.342V9.66832H166.887V13.8481H166.918C167.405 13.0898 168.11 12.7165 169.01 12.7165C170.483 12.7165 171.384 13.8614 171.384 15.6806V19.8191ZM179.772 16.7119H175.131C175.16 18.0294 176.032 18.773 177.324 18.773C178.01 18.773 178.642 18.658 179.199 18.444L179.44 19.5181C178.782 19.8044 178.007 19.9475 177.105 19.9475C174.928 19.9475 173.64 18.5724 173.64 16.4404C173.64 14.307 174.959 12.7032 176.931 12.7032C178.709 12.7032 179.825 14.0208 179.825 16.0111C179.835 16.246 179.817 16.4812 179.772 16.7119ZM178.354 15.6098C178.354 14.5357 177.812 13.7773 176.823 13.7773C175.935 13.7773 175.232 14.5504 175.132 15.6098H178.354Z" fill="#01020D"/>
</svg>
