<svg width="97" height="57" viewBox="0 0 97 57" fill="none" xmlns="http://www.w3.org/2000/svg">
<path d="M65.704 22.24L63.832 17.44H56.056L54.184 22.192L52.24 21.4L58.816 5.2H61.312L67.792 21.4L65.704 22.24ZM56.776 15.52H63.088L59.944 7.456L56.776 15.52ZM70.1913 22V5.248C70.8473 5.168 71.5673 5.112 72.3513 5.08C73.1513 5.032 73.9753 5.008 74.8233 5.008C76.2153 5.008 77.3993 5.232 78.3753 5.68C79.3513 6.112 80.0953 6.712 80.6073 7.48C81.1193 8.248 81.3753 9.128 81.3753 10.12C81.3753 11.32 81.0793 12.336 80.4873 13.168C79.8953 14 79.0713 14.64 78.0153 15.088C76.9593 15.52 75.7353 15.736 74.3433 15.736C73.6713 15.736 73.0473 15.712 72.4713 15.664V22H70.1913ZM74.6313 13.84C76.0553 13.84 77.1593 13.52 77.9433 12.88C78.7273 12.24 79.1193 11.384 79.1193 10.312C79.1193 9.272 78.7433 8.448 77.9913 7.84C77.2393 7.232 76.1673 6.928 74.7753 6.928C74.3433 6.928 73.9353 6.936 73.5513 6.952C73.1673 6.968 72.8073 6.992 72.4713 7.024V13.72C72.7273 13.752 73.0393 13.784 73.4073 13.816C73.7753 13.832 74.1833 13.84 74.6313 13.84ZM94.5766 22.288L86.4166 14.272V22H84.1366V5.2H86.4166V12.856L93.5686 5.128L95.1046 6.544L88.5526 13.36L96.1606 20.656L94.5766 22.288Z" fill="#003FCF"/>
<mask id="path-2-outside-1_428_174" maskUnits="userSpaceOnUse" x="0" y="20" width="51" height="26" fill="black">
<rect fill="white" y="20" width="51" height="26"/>
<path d="M3.07812 39.6094C1.57812 39.6198 0.880208 38.8177 0.984375 37.2031V34.8125H14.5781L14.5938 23.3594C14.7708 21.7865 15.5677 20.9635 16.9844 20.8906H19.3906V34.8125C19.401 35.5833 19.3229 36.2708 19.1562 36.875C18.9896 37.4688 18.75 37.974 18.4375 38.3906C18.125 38.8073 17.75 39.1198 17.3125 39.3281C16.875 39.5365 16.3906 39.6302 15.8594 39.6094H3.07812ZM8.5 29.6406L6.23438 27.25C6.07812 27.0938 5.97396 26.9115 5.92188 26.7031C5.86979 26.4948 5.83333 26.3281 5.8125 26.2031C5.80208 25.9844 5.8125 25.7552 5.84375 25.5156C5.88542 25.276 5.96354 25.0573 6.07812 24.8594C6.20312 24.651 6.36458 24.474 6.5625 24.3281C6.77083 24.1719 7.04167 24.0729 7.375 24.0312H10.8594C11.6302 24.0312 11.9896 24.4479 11.9375 25.2812V26.5312H9.125C9.53125 26.9583 9.95833 27.401 10.4062 27.8594C10.8646 28.3073 11.2708 28.7708 11.625 29.25C11.8438 29.6042 11.9271 29.9896 11.875 30.4062C11.8333 30.8125 11.6927 31.1667 11.4531 31.4688C11.1198 31.9271 10.6771 32.1458 10.125 32.125H6.64062C5.84896 32.125 5.48438 31.7135 5.54688 30.8906V29.6406H8.5ZM27.9844 27.8125V36.9062C27.9844 37.7917 27.9375 38.6042 27.8438 39.3438C27.7604 40.0729 27.5885 40.7552 27.3281 41.3906C27.0677 42.026 26.6979 42.6302 26.2188 43.2031C25.7396 43.7865 25.1094 44.3646 24.3281 44.9375H18.0469C18.5677 44.5521 19.1042 44.151 19.6562 43.7344C20.1979 43.3281 20.6979 42.9062 21.1562 42.4688C21.6146 42.0312 22.0052 41.5781 22.3281 41.1094C22.6615 40.6302 22.875 40.1302 22.9688 39.6094V31.5781C22.9167 29.4635 23.75 28.2083 25.4688 27.8125H27.9844ZM30.5156 23.3594C30.6927 21.7865 31.4896 20.9635 32.9062 20.8906H35.3125V37.1562C35.1458 38.7083 34.3438 39.526 32.9062 39.6094H30.5156V23.3594ZM37.7031 27.8125H50.0938V36.7812C50.0312 37.6667 49.7552 38.3594 49.2656 38.8594C48.776 39.3594 48.0052 39.6094 46.9531 39.6094H40.1875C39.8021 39.6094 39.4479 39.5365 39.125 39.3906C38.8125 39.2448 38.5417 39.0469 38.3125 38.7969C38.0938 38.5365 37.9271 38.2344 37.8125 37.8906C37.7083 37.5365 37.6719 37.1562 37.7031 36.75L37.7188 34.8281L45.2656 34.8125V32.5625H40.0938C39.7604 32.5312 39.4427 32.4688 39.1406 32.375C38.849 32.2812 38.5938 32.1302 38.375 31.9219C38.1667 31.7031 38 31.4167 37.875 31.0625C37.7604 30.6979 37.7083 30.2344 37.7188 29.6719L37.7031 27.8125Z"/>
</mask>
<path d="M3.07812 39.6094C1.57812 39.6198 0.880208 38.8177 0.984375 37.2031V34.8125H14.5781L14.5938 23.3594C14.7708 21.7865 15.5677 20.9635 16.9844 20.8906H19.3906V34.8125C19.401 35.5833 19.3229 36.2708 19.1562 36.875C18.9896 37.4688 18.75 37.974 18.4375 38.3906C18.125 38.8073 17.75 39.1198 17.3125 39.3281C16.875 39.5365 16.3906 39.6302 15.8594 39.6094H3.07812ZM8.5 29.6406L6.23438 27.25C6.07812 27.0938 5.97396 26.9115 5.92188 26.7031C5.86979 26.4948 5.83333 26.3281 5.8125 26.2031C5.80208 25.9844 5.8125 25.7552 5.84375 25.5156C5.88542 25.276 5.96354 25.0573 6.07812 24.8594C6.20312 24.651 6.36458 24.474 6.5625 24.3281C6.77083 24.1719 7.04167 24.0729 7.375 24.0312H10.8594C11.6302 24.0312 11.9896 24.4479 11.9375 25.2812V26.5312H9.125C9.53125 26.9583 9.95833 27.401 10.4062 27.8594C10.8646 28.3073 11.2708 28.7708 11.625 29.25C11.8438 29.6042 11.9271 29.9896 11.875 30.4062C11.8333 30.8125 11.6927 31.1667 11.4531 31.4688C11.1198 31.9271 10.6771 32.1458 10.125 32.125H6.64062C5.84896 32.125 5.48438 31.7135 5.54688 30.8906V29.6406H8.5ZM27.9844 27.8125V36.9062C27.9844 37.7917 27.9375 38.6042 27.8438 39.3438C27.7604 40.0729 27.5885 40.7552 27.3281 41.3906C27.0677 42.026 26.6979 42.6302 26.2188 43.2031C25.7396 43.7865 25.1094 44.3646 24.3281 44.9375H18.0469C18.5677 44.5521 19.1042 44.151 19.6562 43.7344C20.1979 43.3281 20.6979 42.9062 21.1562 42.4688C21.6146 42.0312 22.0052 41.5781 22.3281 41.1094C22.6615 40.6302 22.875 40.1302 22.9688 39.6094V31.5781C22.9167 29.4635 23.75 28.2083 25.4688 27.8125H27.9844ZM30.5156 23.3594C30.6927 21.7865 31.4896 20.9635 32.9062 20.8906H35.3125V37.1562C35.1458 38.7083 34.3438 39.526 32.9062 39.6094H30.5156V23.3594ZM37.7031 27.8125H50.0938V36.7812C50.0312 37.6667 49.7552 38.3594 49.2656 38.8594C48.776 39.3594 48.0052 39.6094 46.9531 39.6094H40.1875C39.8021 39.6094 39.4479 39.5365 39.125 39.3906C38.8125 39.2448 38.5417 39.0469 38.3125 38.7969C38.0938 38.5365 37.9271 38.2344 37.8125 37.8906C37.7083 37.5365 37.6719 37.1562 37.7031 36.75L37.7188 34.8281L45.2656 34.8125V32.5625H40.0938C39.7604 32.5312 39.4427 32.4688 39.1406 32.375C38.849 32.2812 38.5938 32.1302 38.375 31.9219C38.1667 31.7031 38 31.4167 37.875 31.0625C37.7604 30.6979 37.7083 30.2344 37.7188 29.6719L37.7031 27.8125Z" fill="#2654DE"/>
<path d="M3.07812 39.6094V39.4094L3.07674 39.4094L3.07812 39.6094ZM0.984375 37.2031L1.18438 37.216V37.2031H0.984375ZM0.984375 34.8125V34.6125H0.784375V34.8125H0.984375ZM14.5781 34.8125V35.0125H14.7779L14.7781 34.8128L14.5781 34.8125ZM14.5938 23.3594L14.395 23.337L14.3938 23.348L14.3938 23.3591L14.5938 23.3594ZM16.9844 20.8906V20.6904L16.9741 20.6909L16.9844 20.8906ZM19.3906 20.8906H19.5906V20.6906H19.3906V20.8906ZM19.3906 34.8125H19.1906L19.1906 34.8152L19.3906 34.8125ZM19.1562 36.875L19.3488 36.9291L19.349 36.9282L19.1562 36.875ZM15.8594 39.6094L15.8672 39.4094H15.8594V39.6094ZM8.5 29.6406V29.8406H8.96509L8.64517 29.503L8.5 29.6406ZM6.23438 27.25L6.37959 27.1124L6.3758 27.1086L6.23438 27.25ZM5.8125 26.2031L5.61273 26.2126L5.61329 26.2244L5.61522 26.236L5.8125 26.2031ZM5.84375 25.5156L5.64653 25.4813L5.64543 25.4898L5.84375 25.5156ZM6.07812 24.8594L5.90661 24.7565L5.90504 24.7592L6.07812 24.8594ZM6.5625 24.3281L6.68114 24.4891L6.6825 24.4881L6.5625 24.3281ZM7.375 24.0312V23.8313H7.36255L7.35019 23.8328L7.375 24.0312ZM11.9375 25.2812L11.7375 25.2687V25.2812H11.9375ZM11.9375 26.5312V26.7313H12.1375V26.5312H11.9375ZM9.125 26.5312V26.3312H8.65873L8.98009 26.6691L9.125 26.5312ZM10.4062 27.8594L10.2632 27.9992L10.2665 28.0024L10.4062 27.8594ZM11.625 29.25L11.7952 29.1449L11.7908 29.1378L11.7858 29.1311L11.625 29.25ZM11.875 30.4062L11.6765 30.3814L11.676 30.3858L11.875 30.4062ZM11.4531 31.4688L11.2963 31.3444L11.2914 31.3511L11.4531 31.4688ZM10.125 32.125L10.1325 31.925H10.125V32.125ZM5.54688 30.8906L5.7463 30.9058L5.74687 30.8982V30.8906H5.54688ZM5.54688 29.6406V29.4406H5.34688V29.6406H5.54688ZM3.07674 39.4094C2.36022 39.4144 1.87746 39.2255 1.58057 38.8843C1.2806 38.5396 1.13353 37.9976 1.18396 37.216L0.78479 37.1902C0.73105 38.0232 0.880862 38.6896 1.27881 39.1469C1.67983 39.6078 2.29603 39.8148 3.07951 39.8094L3.07674 39.4094ZM1.18438 37.2031V34.8125H0.784375V37.2031H1.18438ZM0.984375 35.0125H14.5781V34.6125H0.984375V35.0125ZM14.7781 34.8128L14.7937 23.3596L14.3938 23.3591L14.3781 34.8122L14.7781 34.8128ZM14.7925 23.3818C14.8779 22.6227 15.1101 22.0712 15.4679 21.7016C15.8232 21.3347 16.3242 21.1249 16.9947 21.0904L16.9741 20.6909C16.2279 20.7293 15.6221 20.9674 15.1805 21.4234C14.7415 21.8768 14.4866 22.5231 14.395 23.337L14.7925 23.3818ZM16.9844 21.0906H19.3906V20.6906H16.9844V21.0906ZM19.1906 20.8906V34.8125H19.5906V20.8906H19.1906ZM19.1906 34.8152C19.2009 35.5713 19.1241 36.2395 18.9635 36.8218L19.349 36.9282C19.5217 36.3022 19.6012 35.5954 19.5906 34.8098L19.1906 34.8152ZM18.9637 36.8209C18.8025 37.3952 18.5727 37.877 18.2775 38.2706L18.5975 38.5106C18.9273 38.0709 19.1767 37.5423 19.3488 36.9291L18.9637 36.8209ZM18.2775 38.2706C17.9829 38.6634 17.6326 38.9542 17.2265 39.1476L17.3985 39.5087C17.8674 39.2854 18.2671 38.9512 18.5975 38.5106L18.2775 38.2706ZM17.2265 39.1476C16.821 39.3406 16.3693 39.4292 15.8672 39.4095L15.8515 39.8092C16.412 39.8312 16.929 39.7323 17.3985 39.5087L17.2265 39.1476ZM15.8594 39.4094H3.07812V39.8094H15.8594V39.4094ZM8.64517 29.503L6.37954 27.1124L6.08921 27.3876L8.35483 29.7782L8.64517 29.503ZM6.3758 27.1086C6.2444 26.9772 6.15893 26.8267 6.1159 26.6546L5.72785 26.7516C5.78899 26.9962 5.91185 27.2103 6.09295 27.3914L6.3758 27.1086ZM6.1159 26.6546C6.06436 26.4484 6.02934 26.2876 6.00978 26.1702L5.61522 26.236C5.63732 26.3686 5.67522 26.5411 5.72785 26.7516L6.1159 26.6546ZM6.01227 26.1936C6.00247 25.9878 6.0122 25.7705 6.04207 25.5415L5.64543 25.4898C5.6128 25.7399 5.60169 25.9809 5.61273 26.2126L6.01227 26.1936ZM6.04079 25.5499C6.07868 25.332 6.14917 25.1358 6.25121 24.9596L5.90504 24.7592C5.77792 24.9787 5.69215 25.22 5.64671 25.4814L6.04079 25.5499ZM6.24962 24.9623C6.36085 24.7769 6.50425 24.6195 6.68114 24.4891L6.44386 24.1671C6.22492 24.3284 6.0454 24.5252 5.90663 24.7565L6.24962 24.9623ZM6.6825 24.4881C6.85604 24.358 7.09123 24.2683 7.39981 24.2297L7.35019 23.8328C6.99211 23.8776 6.68563 23.9858 6.4425 24.1681L6.6825 24.4881ZM7.375 24.2313H10.8594V23.8313H7.375V24.2313ZM10.8594 24.2313C11.2109 24.2313 11.4273 24.3256 11.5556 24.4744C11.687 24.6268 11.7623 24.8778 11.7379 25.2688L12.1371 25.2937C12.1648 24.8514 12.0864 24.4774 11.8585 24.2131C11.6274 23.9452 11.2787 23.8313 10.8594 23.8313V24.2313ZM11.7375 25.2812V26.5312H12.1375V25.2812H11.7375ZM11.9375 26.3312H9.125V26.7313H11.9375V26.3312ZM8.98009 26.6691C9.38701 27.0969 9.81472 27.5402 10.2632 27.9992L10.5493 27.7196C10.1019 27.2618 9.67549 26.8198 9.26991 26.3934L8.98009 26.6691ZM10.2665 28.0024C10.7177 28.4434 11.1168 28.8989 11.4642 29.3689L11.7858 29.1311C11.4249 28.6427 11.0115 28.1712 10.546 27.7163L10.2665 28.0024ZM11.4548 29.3551C11.6494 29.6701 11.723 30.0096 11.6765 30.3814L12.0735 30.4311C12.1311 29.9696 12.0381 29.5382 11.7952 29.1449L11.4548 29.3551ZM11.676 30.3858C11.638 30.7565 11.5109 31.0741 11.2964 31.3445L11.6098 31.593C11.8745 31.2593 12.0286 30.8685 12.074 30.4267L11.676 30.3858ZM11.2914 31.3511C10.996 31.7572 10.616 31.9434 10.1325 31.9251L10.1175 32.3249C10.7382 32.3483 11.2436 32.097 11.6149 31.5864L11.2914 31.3511ZM10.125 31.925H6.64062V32.325H10.125V31.925ZM6.64062 31.925C6.27624 31.925 6.05319 31.8305 5.92313 31.6838C5.79133 31.535 5.71711 31.2901 5.7463 30.9058L5.34745 30.8755C5.31414 31.3141 5.39096 31.6863 5.62375 31.949C5.85827 32.2137 6.21334 32.325 6.64062 32.325V31.925ZM5.74687 30.8906V29.6406H5.34688V30.8906H5.74687ZM5.54688 29.8406H8.5V29.4406H5.54688V29.8406ZM27.9844 27.8125H28.1844V27.6125H27.9844V27.8125ZM27.8438 39.3438L27.6453 39.3186L27.645 39.321L27.8438 39.3438ZM26.2188 43.2031L26.0653 43.0748L26.0642 43.0762L26.2188 43.2031ZM24.3281 44.9375V45.1375H24.3936L24.4464 45.0988L24.3281 44.9375ZM18.0469 44.9375L17.9279 44.7767L17.4404 45.1375H18.0469V44.9375ZM19.6562 43.7344L19.5362 43.5744L19.5358 43.5747L19.6562 43.7344ZM22.3281 41.1094L22.1639 40.9952L22.1634 40.9959L22.3281 41.1094ZM22.9688 39.6094L23.1656 39.6448L23.1688 39.6272V39.6094H22.9688ZM22.9688 31.5781H23.1688L23.1687 31.5732L22.9688 31.5781ZM25.4688 27.8125V27.6125H25.446L25.4239 27.6176L25.4688 27.8125ZM27.7844 27.8125V36.9062H28.1844V27.8125H27.7844ZM27.7844 36.9062C27.7844 37.7848 27.7379 38.5887 27.6453 39.3186L28.0422 39.3689C28.1371 38.6196 28.1844 37.7986 28.1844 36.9062H27.7844ZM27.645 39.321C27.5637 40.0332 27.3961 40.6975 27.1431 41.3148L27.5132 41.4665C27.781 40.8129 27.9572 40.1126 28.0425 39.3665L27.645 39.321ZM27.1431 41.3148C26.8911 41.9296 26.5325 42.5163 26.0653 43.0748L26.3722 43.3314C26.8634 42.7441 27.2443 42.1225 27.5132 41.4665L27.1431 41.3148ZM26.0642 43.0762C25.5981 43.6436 24.9812 44.2105 24.2099 44.7762L24.4464 45.0988C25.2375 44.5186 25.881 43.9294 26.3733 43.3301L26.0642 43.0762ZM24.3281 44.7375H18.0469V45.1375H24.3281V44.7375ZM18.1658 45.0983C18.6872 44.7125 19.2242 44.311 19.7767 43.894L19.5358 43.5747C18.9842 43.9911 18.4482 44.3917 17.9279 44.7767L18.1658 45.0983ZM19.7763 43.8944C20.3238 43.4837 20.8299 43.0567 21.2943 42.6134L21.0182 42.3241C20.5659 42.7558 20.072 43.1726 19.5362 43.5744L19.7763 43.8944ZM21.2943 42.6134C21.7615 42.1675 22.1613 41.7041 22.4928 41.2228L22.1634 40.9959C21.8491 41.4522 21.4677 41.895 21.0182 42.3241L21.2943 42.6134ZM22.4923 41.2236C22.8404 40.7233 23.0662 40.1967 23.1656 39.6448L22.7719 39.5739C22.6838 40.0637 22.4826 40.5372 22.1639 40.9952L22.4923 41.2236ZM23.1688 39.6094V31.5781H22.7687V39.6094H23.1688ZM23.1687 31.5732C23.1433 30.5409 23.3348 29.7435 23.7213 29.1614C24.1049 28.5836 24.695 28.1959 25.5136 28.0074L25.4239 27.6176C24.5237 27.8249 23.8378 28.2627 23.3881 28.9402C22.9412 29.6132 22.7422 30.5008 22.7688 31.583L23.1687 31.5732ZM25.4688 28.0125H27.9844V27.6125H25.4688V28.0125ZM30.5156 23.3594L30.3169 23.337L30.3156 23.3482V23.3594H30.5156ZM32.9062 20.8906V20.6904L32.896 20.6909L32.9062 20.8906ZM35.3125 20.8906H35.5125V20.6906H35.3125V20.8906ZM35.3125 37.1562L35.5114 37.1776L35.5125 37.167V37.1562H35.3125ZM32.9062 39.6094V39.8097L32.9178 39.809L32.9062 39.6094ZM30.5156 39.6094H30.3156V39.8094H30.5156V39.6094ZM30.7144 23.3818C30.7998 22.6227 31.0319 22.0712 31.3898 21.7016C31.7451 21.3347 32.2461 21.1249 32.9165 21.0904L32.896 20.6909C32.1497 20.7293 31.544 20.9674 31.1024 21.4234C30.6634 21.8768 30.4085 22.5231 30.3169 23.337L30.7144 23.3818ZM32.9062 21.0906H35.3125V20.6906H32.9062V21.0906ZM35.1125 20.8906V37.1562H35.5125V20.8906H35.1125ZM35.1136 37.1349C35.0334 37.8823 34.803 38.4267 34.4432 38.7935C34.0852 39.1585 33.5771 39.3702 32.8947 39.4097L32.9178 39.809C33.6729 39.7653 34.2846 39.5264 34.7287 39.0736C35.171 38.6227 35.4249 37.9823 35.5114 37.1776L35.1136 37.1349ZM32.9062 39.4094H30.5156V39.8094H32.9062V39.4094ZM30.7156 39.6094V23.3594H30.3156V39.6094H30.7156ZM37.7031 27.8125V27.6125H37.5014L37.5031 27.8142L37.7031 27.8125ZM50.0938 27.8125H50.2938V27.6125H50.0938V27.8125ZM50.0938 36.7812L50.2938 36.7954V36.7812H50.0938ZM39.125 39.3906L39.0404 39.5719L39.0427 39.5729L39.125 39.3906ZM38.3125 38.7969L38.1592 38.9256L38.1651 38.932L38.3125 38.7969ZM37.8125 37.8906L37.6205 37.9471L37.6228 37.9539L37.8125 37.8906ZM37.7031 36.75L37.903 36.7654L37.9031 36.7516L37.7031 36.75ZM37.7188 34.8281L37.7183 34.6281L37.5204 34.6285L37.5188 34.8265L37.7188 34.8281ZM45.2656 34.8125L45.266 35.0125L45.4656 35.0121V34.8125H45.2656ZM45.2656 32.5625H45.4656V32.3625H45.2656V32.5625ZM40.0938 32.5625L40.0751 32.7616L40.0844 32.7625H40.0938V32.5625ZM39.1406 32.375L39.0794 32.5654L39.0813 32.566L39.1406 32.375ZM38.375 31.9219L38.23 32.06L38.2371 32.0667L38.375 31.9219ZM37.875 31.0625L37.6841 31.1225L37.6864 31.1291L37.875 31.0625ZM37.7188 29.6719L37.9188 29.6756L37.9187 29.6702L37.7188 29.6719ZM37.7031 28.0125H50.0938V27.6125H37.7031V28.0125ZM49.8937 27.8125V36.7812H50.2938V27.8125H49.8937ZM49.8942 36.7672C49.8342 37.6183 49.571 38.2617 49.1227 38.7194L49.4085 38.9993C49.9394 38.4571 50.2283 37.715 50.2933 36.7953L49.8942 36.7672ZM49.1227 38.7194C48.6861 39.1654 47.9782 39.4094 46.9531 39.4094V39.8094C48.0322 39.8094 48.866 39.5534 49.4085 38.9993L49.1227 38.7194ZM46.9531 39.4094H40.1875V39.8094H46.9531V39.4094ZM40.1875 39.4094C39.8279 39.4094 39.5022 39.3415 39.2073 39.2084L39.0427 39.5729C39.3937 39.7314 39.7762 39.8094 40.1875 39.8094V39.4094ZM39.2096 39.2094C38.9204 39.0745 38.6711 38.8921 38.4599 38.6617L38.1651 38.932C38.4123 39.2017 38.7046 39.4151 39.0404 39.5719L39.2096 39.2094ZM38.4656 38.6682C38.2641 38.4284 38.1094 38.1488 38.0022 37.8274L37.6228 37.9539C37.7448 38.32 37.9234 38.6446 38.1594 38.9255L38.4656 38.6682ZM38.0044 37.8342C37.9077 37.5056 37.873 37.1499 37.9025 36.7653L37.5037 36.7347C37.4708 37.1626 37.5089 37.5673 37.6206 37.9471L38.0044 37.8342ZM37.9031 36.7516L37.9187 34.8298L37.5188 34.8265L37.5031 36.7484L37.9031 36.7516ZM37.7192 35.0281L45.266 35.0125L45.2652 34.6125L37.7183 34.6281L37.7192 35.0281ZM45.4656 34.8125V32.5625H45.0656V34.8125H45.4656ZM45.2656 32.3625H40.0938V32.7625H45.2656V32.3625ZM40.1124 32.3634C39.7921 32.3333 39.488 32.2734 39.1999 32.184L39.0813 32.566C39.3974 32.6641 39.7288 32.7292 40.0751 32.7616L40.1124 32.3634ZM39.2018 32.1846C38.9384 32.0999 38.7095 31.9643 38.5129 31.777L38.2371 32.0667C38.478 32.2961 38.7595 32.4626 39.0794 32.5654L39.2018 32.1846ZM38.5198 31.7839C38.3351 31.59 38.1814 31.3298 38.0636 30.9959L37.6864 31.1291C37.8186 31.5035 37.9982 31.8163 38.2302 32.0598L38.5198 31.7839ZM38.0658 31.0025C37.96 30.6658 37.9085 30.2257 37.9187 29.6756L37.5188 29.6682C37.5081 30.243 37.5609 30.73 37.6842 31.1225L38.0658 31.0025ZM37.9187 29.6702L37.9031 27.8108L37.5031 27.8142L37.5188 29.6736L37.9187 29.6702Z" fill="#2654DE" mask="url(#path-2-outside-1_428_174)"/>
</svg>
