<svg width="48" height="39" viewBox="0 0 48 39" fill="none" xmlns="http://www.w3.org/2000/svg">
<path d="M0.758333 3.14167V3.64167H1.25833H2.01667V31.5833H0.5V2.38333H0.758333V3.14167ZM45.8 31.5833V3.64167H46.5583H47.0583V3.14167V2.38333H47.3167V31.5833H45.8ZM47.1285 1.38333H47.0583V1.31318C47.0707 1.32406 47.0828 1.33537 47.0946 1.34711C47.1063 1.35885 47.1176 1.37093 47.1285 1.38333ZM46.0583 1.125V1.38333H45.3H44.8V1.88333V2.64167H3.01667V1.88333V1.38333H2.51667H1.75833V1.125H46.0583ZM0.722111 1.34711C0.733848 1.33537 0.74593 1.32406 0.758333 1.31318V1.38333H0.688183C0.699061 1.37093 0.710374 1.35885 0.722111 1.34711ZM1.75833 2.38333H2.01667V2.64167H1.75833V2.38333ZM46.0583 2.64167H45.8V2.38333H46.0583V2.64167ZM45.7707 32.5833H47.2951C47.1779 33.9362 46.588 35.211 45.6203 36.1787C44.6527 37.1463 43.3778 37.7362 42.025 37.8534V36.329C42.9747 36.2172 43.8649 35.7892 44.5479 35.1062C45.2308 34.4232 45.6589 33.533 45.7707 32.5833ZM41.025 36.3583V37.875H6.79167V36.3583H41.025ZM5.79167 36.329V37.8534C4.43884 37.7362 3.16401 37.1463 2.19634 36.1787C1.22867 35.211 0.638786 33.9362 0.521608 32.5833H2.04599C2.15781 33.533 2.58582 34.4232 3.26878 35.1062C3.95175 35.7892 4.842 36.2172 5.79167 36.329Z" fill="#6A6A6A" stroke="url(#paint0_linear_391_1454)"/>
<path d="M1.25842 1.88354L23.9084 24.5335L46.5584 1.88354" stroke="url(#paint1_linear_391_1454)" stroke-width="2" stroke-linecap="round" stroke-linejoin="round"/>
<defs>
<linearGradient id="paint0_linear_391_1454" x1="-4.47616" y1="41.4727" x2="38.8162" y2="-12.2961" gradientUnits="userSpaceOnUse">
<stop stop-color="#2553DE"/>
<stop offset="0.29" stop-color="#2755DE"/>
<stop offset="0.45" stop-color="#2F5BDE"/>
<stop offset="0.57" stop-color="#3D65DD"/>
<stop offset="0.68" stop-color="#5073DC"/>
<stop offset="0.78" stop-color="#6986DB"/>
<stop offset="0.87" stop-color="#889DDA"/>
<stop offset="0.95" stop-color="#ACB8D8"/>
<stop offset="1" stop-color="#C4CAD7"/>
</linearGradient>
<linearGradient id="paint1_linear_391_1454" x1="-2.98215" y1="26.3921" x2="18.5379" y2="-15.8096" gradientUnits="userSpaceOnUse">
<stop stop-color="#2553DE"/>
<stop offset="0.29" stop-color="#2755DE"/>
<stop offset="0.45" stop-color="#2F5BDE"/>
<stop offset="0.57" stop-color="#3D65DD"/>
<stop offset="0.68" stop-color="#5073DC"/>
<stop offset="0.78" stop-color="#6986DB"/>
<stop offset="0.87" stop-color="#889DDA"/>
<stop offset="0.95" stop-color="#ACB8D8"/>
<stop offset="1" stop-color="#C4CAD7"/>
</linearGradient>
</defs>
</svg>
