<svg width="200" height="59" viewBox="0 0 200 59" fill="none" xmlns="http://www.w3.org/2000/svg">
<path d="M191.75 58.9999H7.37499C3.245 58.9999 0 55.7549 0 51.6249V7.37499C0 3.245 3.245 0 7.37499 0H191.75C195.88 0 199.125 3.245 199.125 7.37499V51.6249C199.125 55.7549 195.88 58.9999 191.75 58.9999Z" fill="#FFFEFB"/>
<path d="M191.75 1.18C195.142 1.18 197.945 3.9825 197.945 7.37499V51.6249C197.945 55.0174 195.142 57.8199 191.75 57.8199H7.37499C3.9825 57.8199 1.18 55.0174 1.18 51.6249V7.37499C1.18 3.9825 3.9825 1.18 7.37499 1.18H191.75ZM191.75 0H7.37499C3.245 0 0 3.3925 0 7.37499V51.6249C0 55.7549 3.245 58.9999 7.37499 58.9999H191.75C195.88 58.9999 199.125 55.7549 199.125 51.6249V7.37499C199.125 3.3925 195.88 0 191.75 0Z" fill="#A6A6A6"/>
<path d="M69.9149 15.045C69.9149 16.225 69.6199 17.2575 68.8824 17.995C67.9974 18.88 66.9649 19.3225 65.6374 19.3225C64.3099 19.3225 63.2774 18.88 62.3924 17.995C61.5074 17.11 61.0649 16.0775 61.0649 14.75C61.0649 13.4225 61.5074 12.39 62.3924 11.5051C63.2774 10.6201 64.3099 10.1776 65.6374 10.1776C66.2274 10.1776 66.8174 10.3251 67.4074 10.6201C67.9974 10.9151 68.4399 11.2101 68.7349 11.6525L67.9974 12.39C67.4074 11.6525 66.6699 11.3575 65.6374 11.3575C64.7524 11.3575 63.8674 11.6525 63.2774 12.39C62.5399 12.98 62.2449 13.865 62.2449 14.8975C62.2449 15.93 62.5399 16.815 63.2774 17.405C64.0149 17.995 64.7524 18.4375 65.6374 18.4375C66.6699 18.4375 67.4074 18.1425 68.1449 17.405C68.5874 16.9625 68.8824 16.3725 68.8824 15.635H65.6374V14.455H69.9149V15.045ZM76.6999 11.3575H72.7174V14.16H76.4049V15.1925H72.7174V17.995H76.6999V19.175H71.5374V10.3251H76.6999V11.3575ZM81.5674 19.175H80.3874V11.3575H77.8799V10.3251H84.0749V11.3575H81.5674V19.175ZM88.3524 19.175V10.3251H89.5324V19.175H88.3524ZM94.5474 19.175H93.3674V11.3575H90.8599V10.3251H96.9074V11.3575H94.3999V19.175H94.5474ZM108.56 17.995C107.675 18.88 106.642 19.3225 105.315 19.3225C103.987 19.3225 102.955 18.88 102.07 17.995C101.185 17.11 100.742 16.0775 100.742 14.75C100.742 13.4225 101.185 12.39 102.07 11.5051C102.955 10.6201 103.987 10.1776 105.315 10.1776C106.642 10.1776 107.675 10.6201 108.56 11.5051C109.445 12.39 109.887 13.4225 109.887 14.75C109.887 16.0775 109.445 17.11 108.56 17.995ZM102.955 17.2575C103.545 17.8475 104.43 18.29 105.315 18.29C106.2 18.29 107.085 17.995 107.675 17.2575C108.265 16.6675 108.707 15.7825 108.707 14.75C108.707 13.7175 108.412 12.8325 107.675 12.2425C107.085 11.6525 106.2 11.21 105.315 11.21C104.43 11.21 103.545 11.5051 102.955 12.2425C102.365 12.8325 101.922 13.7175 101.922 14.75C101.922 15.7825 102.217 16.6675 102.955 17.2575ZM111.51 19.175V10.3251H112.837L117.115 17.2575V10.3251H118.295V19.175H117.115L112.542 11.9475V19.175H111.51Z" fill="#01020D"/>
<path d="M100.448 32.155C96.9075 32.155 94.105 34.81 94.105 38.4975C94.105 42.0375 96.9075 44.84 100.448 44.84C103.988 44.84 106.79 42.185 106.79 38.4975C106.79 34.6625 103.988 32.155 100.448 32.155ZM100.448 42.185C98.53 42.185 96.9075 40.5625 96.9075 38.35C96.9075 36.1375 98.53 34.515 100.448 34.515C102.365 34.515 103.988 35.99 103.988 38.35C103.988 40.5625 102.365 42.185 100.448 42.185ZM86.73 32.155C83.19 32.155 80.3875 34.81 80.3875 38.4975C80.3875 42.0375 83.19 44.84 86.73 44.84C90.27 44.84 93.0725 42.185 93.0725 38.4975C93.0725 34.6625 90.27 32.155 86.73 32.155ZM86.73 42.185C84.8125 42.185 83.19 40.5625 83.19 38.35C83.19 36.1375 84.8125 34.515 86.73 34.515C88.6475 34.515 90.27 35.99 90.27 38.35C90.27 40.5625 88.6475 42.185 86.73 42.185ZM70.3576 34.0725V36.7275H76.7C76.5525 38.2025 75.9625 39.3825 75.225 40.12C74.34 41.005 72.8651 42.0375 70.3576 42.0375C66.3751 42.0375 63.4251 38.94 63.4251 34.9575C63.4251 30.975 66.5226 27.8775 70.3576 27.8775C72.4226 27.8775 74.045 28.7625 75.225 29.795L77.1425 27.8775C75.52 26.4025 73.455 25.2225 70.5051 25.2225C65.1951 25.2225 60.6226 29.6475 60.6226 34.9575C60.6226 40.2675 65.1951 44.6925 70.5051 44.6925C73.455 44.6925 75.52 43.8075 77.29 41.89C79.06 40.12 79.65 37.6125 79.65 35.695C79.65 35.105 79.65 34.515 79.5025 34.0725H70.3576ZM137.322 36.1375C136.732 34.6625 135.257 32.155 132.012 32.155C128.767 32.155 126.112 34.6625 126.112 38.4975C126.112 42.0375 128.767 44.84 132.307 44.84C135.11 44.84 136.88 43.07 137.47 42.0375L135.405 40.5625C134.667 41.595 133.782 42.3325 132.307 42.3325C130.832 42.3325 129.947 41.7425 129.21 40.415L137.617 36.875L137.322 36.1375ZM128.768 38.2025C128.768 35.8425 130.685 34.515 132.012 34.515C133.045 34.515 134.077 35.105 134.372 35.8425L128.768 38.2025ZM121.835 44.25H124.637V25.8125H121.835V44.25ZM117.41 33.4825C116.673 32.745 115.493 32.0075 114.018 32.0075C110.92 32.0075 107.97 34.81 107.97 38.35C107.97 41.89 110.773 44.545 114.018 44.545C115.493 44.545 116.673 43.8075 117.263 43.07H117.41V43.955C117.41 46.315 116.083 47.6425 114.018 47.6425C112.395 47.6425 111.215 46.4625 110.92 45.43L108.56 46.4625C109.298 48.085 111.068 50.15 114.165 50.15C117.41 50.15 120.065 48.2325 120.065 43.66V32.45H117.41V33.4825ZM114.165 42.185C112.248 42.185 110.625 40.5625 110.625 38.35C110.625 36.1375 112.248 34.515 114.165 34.515C116.083 34.515 117.558 36.1375 117.558 38.35C117.558 40.5625 116.083 42.185 114.165 42.185ZM150.155 25.8125H143.517V44.25H146.32V37.3175H150.155C153.252 37.3175 156.202 35.105 156.202 31.565C156.202 28.025 153.252 25.8125 150.155 25.8125ZM150.302 34.6625H146.32V28.32H150.302C152.367 28.32 153.547 30.09 153.547 31.4175C153.4 33.04 152.22 34.6625 150.302 34.6625ZM167.265 32.0075C165.2 32.0075 163.135 32.8925 162.397 34.81L164.905 35.8425C165.495 34.81 166.38 34.515 167.412 34.515C168.887 34.515 170.215 35.4 170.362 36.875V37.0225C169.92 36.7275 168.74 36.285 167.56 36.285C164.905 36.285 162.25 37.76 162.25 40.415C162.25 42.9225 164.462 44.545 166.822 44.545C168.74 44.545 169.625 43.66 170.362 42.775H170.51V44.25H173.165V37.17C172.87 33.925 170.362 32.0075 167.265 32.0075ZM166.97 42.185C166.085 42.185 164.757 41.7425 164.757 40.5625C164.757 39.0875 166.38 38.645 167.707 38.645C168.887 38.645 169.477 38.94 170.215 39.235C169.92 41.005 168.445 42.185 166.97 42.185ZM182.457 32.45L179.36 40.415H179.212L175.967 32.45H173.017L177.885 43.66L175.082 49.855H177.885L185.407 32.45H182.457ZM157.677 44.25H160.48V25.8125H157.677V44.25Z" fill="#01020D"/>
<path d="M15.3405 11.0624C14.898 11.5049 14.7505 12.2424 14.7505 13.1274V45.7249C14.7505 46.6099 15.0455 47.3474 15.488 47.7899L15.6355 47.9374L33.9255 29.6474V29.3524L15.3405 11.0624Z" fill="url(#paint0_linear_10_4100)"/>
<path d="M39.8251 35.8425L33.7776 29.795V29.3525L39.8251 23.305L39.9726 23.4525L47.2001 27.5825C49.2651 28.7625 49.2651 30.68 47.2001 31.86L39.8251 35.8425Z" fill="url(#paint1_linear_10_4100)"/>
<path d="M39.9726 35.6949L33.7776 29.4999L15.3401 47.9374C16.0776 48.6749 17.1101 48.6749 18.4376 48.0849L39.9726 35.6949Z" fill="url(#paint2_linear_10_4100)"/>
<path d="M39.9726 23.305L18.4376 11.0625C17.1101 10.325 16.0776 10.4725 15.3401 11.21L33.7776 29.5L39.9726 23.305Z" fill="url(#paint3_linear_10_4100)"/>
<path opacity="0.2" d="M39.8251 35.5475L18.4376 47.6425C17.2576 48.38 16.2251 48.2325 15.4876 47.6425L15.3401 47.79L15.4876 47.9375C16.2251 48.5275 17.2576 48.675 18.4376 47.9375L39.8251 35.5475Z" fill="#FFFEFB"/>
<path opacity="0.12" d="M15.3405 47.6424C14.898 47.1999 14.7505 46.4624 14.7505 45.5774V45.7249C14.7505 46.6099 15.0455 47.3474 15.488 47.7899V47.6424H15.3405ZM47.2005 31.4174L39.8255 35.5474L39.973 35.6949L47.2005 31.5649C48.233 30.9749 48.6755 30.2374 48.6755 29.4999C48.6755 30.2374 48.0855 30.8274 47.2005 31.4174Z" fill="#FFFEFB"/>
<path opacity="0.25" d="M18.4379 11.2101L47.2003 27.5826C48.0853 28.1726 48.6753 28.7626 48.6753 29.5001C48.6753 28.7626 48.2328 28.0251 47.2003 27.4351L18.4379 11.0626C16.3729 9.88259 14.7504 10.7676 14.7504 13.1276V13.2751C14.7504 11.0626 16.3729 10.0301 18.4379 11.2101Z" fill="#01020D"/>
<defs>
<linearGradient id="paint0_linear_10_4100" x1="32.1555" y1="12.8472" x2="7.40057" y2="37.6006" gradientUnits="userSpaceOnUse">
<stop stop-color="#00A0FF"/>
<stop offset="0.007" stop-color="#00A1FF"/>
<stop offset="0.26" stop-color="#00BEFF"/>
<stop offset="0.512" stop-color="#00D2FF"/>
<stop offset="0.76" stop-color="#00DFFF"/>
<stop offset="1" stop-color="#00E3FF"/>
</linearGradient>
<linearGradient id="paint1_linear_10_4100" x1="49.9052" y1="29.5015" x2="14.2147" y2="29.5015" gradientUnits="userSpaceOnUse">
<stop stop-color="#FFE000"/>
<stop offset="0.409" stop-color="#FFBD00"/>
<stop offset="0.775" stop-color="#FFA500"/>
<stop offset="1" stop-color="#FF9C00"/>
</linearGradient>
<linearGradient id="paint2_linear_10_4100" x1="36.6199" y1="32.8865" x2="3.05188" y2="66.4546" gradientUnits="userSpaceOnUse">
<stop stop-color="#FF3A44"/>
<stop offset="1" stop-color="#C31162"/>
</linearGradient>
<linearGradient id="paint3_linear_10_4100" x1="10.7632" y1="0.259588" x2="25.7536" y2="15.25" gradientUnits="userSpaceOnUse">
<stop stop-color="#32A071"/>
<stop offset="0.069" stop-color="#2DA771"/>
<stop offset="0.476" stop-color="#15CF74"/>
<stop offset="0.801" stop-color="#06E775"/>
<stop offset="1" stop-color="#00F076"/>
</linearGradient>
</defs>
</svg>
