<svg width="37" height="28" viewBox="0 0 37 28" fill="none" xmlns="http://www.w3.org/2000/svg">
<path d="M0 2.33333C0 1.71449 0.243638 1.121 0.677316 0.683418C1.11099 0.245833 1.69919 0 2.3125 0H34.6875C35.3008 0 35.889 0.245833 36.3227 0.683418C36.7564 1.121 37 1.71449 37 2.33333C37 2.95217 36.7564 3.54566 36.3227 3.98325C35.889 4.42083 35.3008 4.66667 34.6875 4.66667H2.3125C1.69919 4.66667 1.11099 4.42083 0.677316 3.98325C0.243638 3.54566 0 2.95217 0 2.33333ZM0 14C0 13.3812 0.243638 12.7877 0.677316 12.3501C1.11099 11.9125 1.69919 11.6667 2.3125 11.6667H34.6875C35.3008 11.6667 35.889 11.9125 36.3227 12.3501C36.7564 12.7877 37 13.3812 37 14C37 14.6188 36.7564 15.2123 36.3227 15.6499C35.889 16.0875 35.3008 16.3333 34.6875 16.3333H2.3125C1.69919 16.3333 1.11099 16.0875 0.677316 15.6499C0.243638 15.2123 0 14.6188 0 14ZM0 25.6667C0 25.0478 0.243638 24.4543 0.677316 24.0167C1.11099 23.5792 1.69919 23.3333 2.3125 23.3333H34.6875C35.3008 23.3333 35.889 23.5792 36.3227 24.0167C36.7564 24.4543 37 25.0478 37 25.6667C37 26.2855 36.7564 26.879 36.3227 27.3166C35.889 27.7542 35.3008 28 34.6875 28H2.3125C1.69919 28 1.11099 27.7542 0.677316 27.3166C0.243638 26.879 0 26.2855 0 25.6667Z" fill="#2654DE"/>
</svg>
