<svg width="36" height="37" viewBox="0 0 36 37" fill="none" xmlns="http://www.w3.org/2000/svg">
<path d="M32.9 26.0848V30.7098C32.9016 31.1392 32.8184 31.5642 32.6557 31.9576C32.493 32.351 32.2544 32.7041 31.9551 32.9944C31.6558 33.2846 31.3025 33.5056 30.9177 33.6432C30.533 33.7807 30.1253 33.8318 29.7208 33.7932C25.2333 33.2777 20.9227 31.6566 17.1354 29.0602C13.6118 26.6933 10.6244 23.5352 8.3854 19.8102C5.92079 15.7883 4.38701 11.2093 3.90832 6.44399C3.87188 6.01767 3.91981 5.588 4.04905 5.18233C4.1783 4.77666 4.38603 4.40389 4.65902 4.08774C4.93201 3.77159 5.26429 3.519 5.63468 3.34605C6.00508 3.17309 6.40548 3.08356 6.81041 3.08316H11.1854C11.8931 3.07579 12.5793 3.34074 13.1159 3.8286C13.6525 4.31647 14.003 4.99397 14.1021 5.73482C14.2867 7.21493 14.6292 8.66819 15.1229 10.0669C15.3191 10.6187 15.3616 11.2184 15.2453 11.7949C15.129 12.3715 14.8587 12.9007 14.4667 13.3198L12.6146 15.2777C14.6906 19.1374 17.7136 22.3331 21.3646 24.5277L23.2167 22.5698C23.6132 22.1553 24.1138 21.8697 24.6591 21.7467C25.2045 21.6238 25.7718 21.6687 26.2937 21.8761C27.6168 22.398 28.9916 22.76 30.3917 22.9552C31.1001 23.0609 31.747 23.4381 32.2095 24.0151C32.672 24.5922 32.9177 25.3288 32.9 26.0848Z" stroke="url(#paint0_linear_391_1448)" stroke-width="2" stroke-linecap="round" stroke-linejoin="round"/>
<defs>
<linearGradient id="paint0_linear_391_1448" x1="1.18136" y1="36.3267" x2="37.138" y2="3.04227" gradientUnits="userSpaceOnUse">
<stop stop-color="#2553DE"/>
<stop offset="0.29" stop-color="#2755DE"/>
<stop offset="0.45" stop-color="#2F5BDE"/>
<stop offset="0.57" stop-color="#3D65DD"/>
<stop offset="0.68" stop-color="#5073DC"/>
<stop offset="0.78" stop-color="#6986DB"/>
<stop offset="0.87" stop-color="#889DDA"/>
<stop offset="0.95" stop-color="#ACB8D8"/>
<stop offset="1" stop-color="#C4CAD7"/>
</linearGradient>
</defs>
</svg>
